<svg width="90" height="90" viewBox="0 0 90 90" fill="none" xmlns="http://www.w3.org/2000/svg">
<path d="M87.9892 18.1731C84.9897 9.59215 77.9205 2.4695 68.9908 1.48653C63.9283 1.00278 58.8363 1.33887 54.1956 3.67887C50.5478 5.51825 47.6242 8.60075 44.9988 11.7831C41.7644 7.91028 38.1939 4.4509 33.4759 2.6509C30.6353 1.5695 27.5528 1.2559 24.5434 1.27418C21.9391 1.29528 19.3094 1.55684 16.8189 2.40481C12.257 3.95731 8.44188 7.18184 5.59141 11.1545C4.75852 12.3263 4.02697 13.5668 3.40469 14.8628C2.77469 16.1579 2.2375 17.5051 1.77906 18.872C-2.25265 32.3242 0.180159 48.8617 13.3398 56.4372C14.6673 57.3484 16.0455 58.2231 17.4447 59.0739C21.6339 61.6361 26.0088 64.0478 29.8323 67.0304C30.9166 68.05 31.877 69.1314 32.6589 70.3042C34.2213 72.6498 35.0186 75.3554 34.6333 78.5912C35.0172 81.8101 32.1414 84.1122 32.1414 87.5645C32.7194 92.1629 51.9977 81.7061 53.6359 80.6317C67.2288 72.609 81.0339 62.252 86.4283 46.3895C87.3116 44.3487 88.0471 42.247 88.6291 40.1007C90.5584 32.9879 90.4164 25.1214 87.985 18.1731" fill="#FC6A7D"/>
<path d="M83.5172 19.465C83.4568 18.1978 83.2104 16.9465 82.7859 15.7511C82.4014 14.6612 81.8553 13.6354 81.1659 12.7079C77.1328 7.24605 68.7431 5.55574 61.8567 7.24605C59.182 8.00402 56.5031 9.12761 55.3612 11.7615C54.9773 12.8907 56.5031 13.6417 57.2695 13.2648C62.2406 12.5082 67.7868 12.8007 72.2812 14.7709C73.4128 15.2659 74.4637 15.8673 75.434 16.5751C78.6923 18.9095 80.2167 22.6712 80.9831 26.4329C82.5075 26.0617 83.2795 24.1815 83.4061 22.5278C83.5639 21.5167 83.6012 20.4905 83.5172 19.4706" fill="#F74960"/>
<path d="M16.8201 37.29C16.7264 37.3829 16.652 37.4935 16.6012 37.6154C16.5504 37.7372 16.5243 37.8679 16.5243 38C16.5243 38.132 16.5504 38.2627 16.6012 38.3845C16.652 38.5064 16.7264 38.617 16.8201 38.71C17.0075 38.8962 17.2609 39.0007 17.5251 39.0007C17.7893 39.0007 18.0427 38.8962 18.2301 38.71C18.3238 38.617 18.3982 38.5064 18.449 38.3845C18.4998 38.2627 18.5259 38.132 18.5259 38C18.5259 37.8679 18.4998 37.7372 18.449 37.6154C18.3982 37.4935 18.3238 37.3829 18.2301 37.29C18.0427 37.1037 17.7893 36.9992 17.5251 36.9992C17.2609 36.9992 17.0075 37.1037 16.8201 37.29ZM19.2901 39.77C19.1039 39.9573 18.9993 40.2108 18.9993 40.475C18.9993 40.7391 19.1039 40.9926 19.2901 41.18C19.3831 41.2737 19.4937 41.3481 19.6155 41.3988C19.7374 41.4496 19.8681 41.4758 20.0001 41.4758C20.1321 41.4758 20.2628 41.4496 20.3847 41.3988C20.5065 41.3481 20.6171 41.2737 20.7101 41.18C20.8964 40.9926 21.0009 40.7391 21.0009 40.475C21.0009 40.2108 20.8964 39.9573 20.7101 39.77C20.6171 39.6762 20.5065 39.6018 20.3847 39.5511C20.2628 39.5003 20.1321 39.4742 20.0001 39.4742C19.8681 39.4742 19.7374 39.5003 19.6155 39.5511C19.4937 39.6018 19.3831 39.6762 19.2901 39.77ZM28.2901 29.77C27.2023 28.6732 25.7334 28.0382 24.1892 27.9972C22.645 27.9563 21.1445 28.5124 20.0001 29.55C18.861 28.5245 17.3726 27.9739 15.8403 28.0111C14.3081 28.0483 12.8482 28.6705 11.7601 29.75C10.6791 30.8398 10.057 32.3025 10.0216 33.8371C9.98627 35.3717 10.5404 36.8615 11.5701 38C10.8003 38.8606 10.2951 39.9251 10.1153 41.0657C9.93549 42.2063 10.0886 43.3746 10.5563 44.4303C11.024 45.4861 11.7864 46.3844 12.752 47.0176C13.7176 47.6508 14.8454 47.9919 16.0001 48C17.4803 48.0015 18.9074 47.4485 20.0001 46.45C21.1398 47.4783 22.6303 48.0307 24.165 47.9935C25.6996 47.9563 27.1616 47.3323 28.2501 46.25C29.3297 45.1588 29.9501 43.6954 29.9835 42.1608C30.017 40.6262 29.4611 39.1371 28.4301 38C29.4611 36.8628 30.017 35.3737 29.9835 33.8391C29.9501 32.3045 29.3297 30.8411 28.2501 29.75L28.2901 29.77ZM26.8301 31.17C27.5255 31.8853 27.9285 32.8348 27.96 33.832C27.9914 34.8292 27.6491 35.8022 27.0001 36.56L21.4401 31C22.2045 30.3657 23.1745 30.0329 24.1673 30.0642C25.1601 30.0955 26.1072 30.4888 26.8301 31.17ZM13.1701 44.83C12.4747 44.1146 12.0717 43.1651 12.0402 42.1679C12.0088 41.1707 12.3511 40.1977 13.0001 39.44L18.6001 45.04C17.8272 45.678 16.8465 46.0092 15.8451 45.9705C14.8436 45.9317 13.8914 45.5258 13.1701 44.83ZM26.8301 44.83C26.0708 45.5561 25.0607 45.9614 24.0101 45.9614C22.9595 45.9614 21.9494 45.5561 21.1901 44.83L13.1901 36.83C12.4451 36.0805 12.0269 35.0667 12.0269 34.01C12.0269 32.9532 12.4451 31.9394 13.1901 31.19C13.9396 30.445 14.9534 30.0268 16.0101 30.0268C17.0668 30.0268 18.0807 30.445 18.8301 31.19L26.8301 39.19C27.5751 39.9394 27.9933 40.9532 27.9933 42.01C27.9933 43.0667 27.5751 44.0805 26.8301 44.83ZM21.7701 37.29C21.6764 37.3829 21.602 37.4935 21.5512 37.6154C21.5004 37.7372 21.4743 37.8679 21.4743 38C21.4743 38.132 21.5004 38.2627 21.5512 38.3845C21.602 38.5064 21.6764 38.617 21.7701 38.71C21.9575 38.8962 22.2109 39.0007 22.4751 39.0007C22.7393 39.0007 22.9927 38.8962 23.1801 38.71C23.2738 38.617 23.3482 38.5064 23.399 38.3845C23.4498 38.2627 23.4759 38.132 23.4759 38C23.4759 37.8679 23.4498 37.7372 23.399 37.6154C23.3482 37.4935 23.2738 37.3829 23.1801 37.29C22.9927 37.1037 22.7393 36.9992 22.4751 36.9992C22.2109 36.9992 21.9575 37.1037 21.7701 37.29ZM19.2901 34.82C19.1039 35.0073 18.9993 35.2608 18.9993 35.525C18.9993 35.7891 19.1039 36.0426 19.2901 36.23C19.3831 36.3237 19.4937 36.3981 19.6155 36.4488C19.7374 36.4996 19.8681 36.5258 20.0001 36.5258C20.1321 36.5258 20.2628 36.4996 20.3847 36.4488C20.5065 36.3981 20.6171 36.3237 20.7101 36.23C20.8964 36.0426 21.0009 35.7891 21.0009 35.525C21.0009 35.2608 20.8964 35.0073 20.7101 34.82C20.6171 34.7262 20.5065 34.6518 20.3847 34.6011C20.2628 34.5503 20.1321 34.5242 20.0001 34.5242C19.8681 34.5242 19.7374 34.5503 19.6155 34.6011C19.4937 34.6518 19.3831 34.7262 19.2901 34.82Z" fill="#444444"/>
<path fill-rule="evenodd" clip-rule="evenodd" d="M26.8301 44.83C26.0708 45.5561 25.0607 45.9614 24.0101 45.9614C22.9595 45.9614 21.9494 45.5561 21.1901 44.83L13.1901 36.83C12.4451 36.0805 12.0269 35.0667 12.0269 34.01C12.0269 32.9532 12.4451 31.9394 13.1901 31.19C13.9396 30.445 14.9534 30.0268 16.0101 30.0268C17.0668 30.0268 18.0807 30.445 18.8301 31.19L26.8301 39.19C27.5751 39.9394 27.9933 40.9532 27.9933 42.01C27.9933 43.0667 27.5751 44.0805 26.8301 44.83ZM16.6012 37.6154C16.652 37.4935 16.7264 37.3829 16.8201 37.29C17.0075 37.1037 17.2609 36.9992 17.5251 36.9992C17.7893 36.9992 18.0427 37.1037 18.2301 37.29C18.3238 37.3829 18.3982 37.4935 18.449 37.6154C18.4998 37.7372 18.5259 37.8679 18.5259 38C18.5259 38.132 18.4998 38.2627 18.449 38.3845C18.3982 38.5064 18.3238 38.617 18.2301 38.71C18.0427 38.8962 17.7893 39.0007 17.5251 39.0007C17.2609 39.0007 17.0075 38.8962 16.8201 38.71C16.7264 38.617 16.652 38.5064 16.6012 38.3845C16.5504 38.2627 16.5243 38.132 16.5243 38C16.5243 37.8679 16.5504 37.7372 16.6012 37.6154ZM18.9993 40.475C18.9993 40.2108 19.1039 39.9573 19.2901 39.77C19.3831 39.6762 19.4937 39.6018 19.6155 39.5511C19.7374 39.5003 19.8681 39.4742 20.0001 39.4742C20.1321 39.4742 20.2628 39.5003 20.3847 39.5511C20.5065 39.6018 20.6171 39.6762 20.7101 39.77C20.8964 39.9573 21.0009 40.2108 21.0009 40.475C21.0009 40.7391 20.8964 40.9926 20.7101 41.18C20.6171 41.2737 20.5065 41.3481 20.3847 41.3988C20.2628 41.4496 20.1321 41.4758 20.0001 41.4758C19.8681 41.4758 19.7374 41.4496 19.6155 41.3988C19.4937 41.3481 19.3831 41.2737 19.2901 41.18C19.1039 40.9926 18.9993 40.7391 18.9993 40.475ZM21.5512 37.6154C21.602 37.4935 21.6764 37.3829 21.7701 37.29C21.9575 37.1037 22.2109 36.9992 22.4751 36.9992C22.7393 36.9992 22.9927 37.1037 23.1801 37.29C23.2738 37.3829 23.3482 37.4935 23.399 37.6154C23.4498 37.7372 23.4759 37.8679 23.4759 38C23.4759 38.132 23.4498 38.2627 23.399 38.3845C23.3482 38.5064 23.2738 38.617 23.1801 38.71C22.9927 38.8962 22.7393 39.0007 22.4751 39.0007C22.2109 39.0007 21.9575 38.8962 21.7701 38.71C21.6764 38.617 21.602 38.5064 21.5512 38.3845C21.5004 38.2627 21.4743 38.132 21.4743 38C21.4743 37.8679 21.5004 37.7372 21.5512 37.6154ZM18.9993 35.525C18.9993 35.2608 19.1039 35.0073 19.2901 34.82C19.3831 34.7262 19.4937 34.6518 19.6155 34.6011C19.7374 34.5503 19.8681 34.5242 20.0001 34.5242C20.1321 34.5242 20.2628 34.5503 20.3847 34.6011C20.5065 34.6518 20.6171 34.7262 20.7101 34.82C20.8964 35.0073 21.0009 35.2608 21.0009 35.525C21.0009 35.7891 20.8964 36.0426 20.7101 36.23C20.6171 36.3237 20.5065 36.3981 20.3847 36.4488C20.2628 36.4996 20.1321 36.5258 20.0001 36.5258C19.8681 36.5258 19.7374 36.4996 19.6155 36.4488C19.4937 36.3981 19.3831 36.3237 19.2901 36.23C19.1039 36.0426 18.9993 35.7891 18.9993 35.525Z" fill="white"/>
<path d="M13.1701 44.83C12.4747 44.1146 12.0717 43.1651 12.0402 42.1679C12.0088 41.1707 12.3511 40.1977 13.0001 39.44L18.6001 45.04C17.8272 45.678 16.8465 46.0092 15.8451 45.9705C14.8436 45.9317 13.8914 45.5258 13.1701 44.83Z" fill="white"/>
<path d="M26.8301 31.17C27.5255 31.8853 27.9285 32.8348 27.96 33.832C27.9914 34.8292 27.6491 35.8022 27.0001 36.56L21.4401 31C22.2045 30.3657 23.1745 30.0329 24.1673 30.0642C25.1601 30.0955 26.1072 30.4888 26.8301 31.17Z" fill="white"/>
</svg>
