<svg width="22" height="28" viewBox="0 0 22 28" fill="none" xmlns="http://www.w3.org/2000/svg">
<path d="M20.7156 17.3754C21.5623 15.7162 22.0035 13.8644 22 11.9844C22 5.64165 17.0752 0.5 11 0.5C4.92477 0.5 1.69605e-05 5.64165 1.69605e-05 11.9844C-0.00454848 14.6936 0.912719 17.3164 2.58825 19.3851L2.60119 19.402L2.61284 19.4155H2.58825L9.11577 26.6507C9.35774 26.9189 9.64969 27.1326 9.97366 27.2786C10.2976 27.4247 10.6468 27.5 10.9997 27.5C11.3526 27.5 11.7017 27.4247 12.0257 27.2786C12.3497 27.1326 12.6416 26.9189 12.8836 26.6507L19.4117 19.4155H19.3872L19.3975 19.4027L19.3988 19.4013C19.4454 19.3432 19.4918 19.2847 19.5379 19.2257C19.9869 18.6499 20.3813 18.0307 20.7156 17.3754ZM11.0032 16.3749C9.97357 16.3749 8.98608 15.9478 8.258 15.1877C7.52992 14.4275 7.12089 13.3965 7.12089 12.3215C7.12089 11.2465 7.52992 10.2155 8.258 9.45539C8.98608 8.69525 9.97357 8.2682 11.0032 8.2682C12.0329 8.2682 13.0204 8.69525 13.7485 9.45539C14.4765 10.2155 14.8856 11.2465 14.8856 12.3215C14.8856 13.3965 14.4765 14.4275 13.7485 15.1877C13.0204 15.9478 12.0329 16.3749 11.0032 16.3749Z" fill="white"/>
</svg>
