<svg width="25" height="24" viewBox="0 0 25 24" fill="none" xmlns="http://www.w3.org/2000/svg">
<mask id="path-1-inside-1_2601_13" fill="white">
<path d="M0.944688 5.08878e-08C0.694141 5.08878e-08 0.453856 0.0995292 0.276693 0.276693C0.0995292 0.453856 0 0.694141 0 0.944688C0 1.19523 0.0995292 1.43552 0.276693 1.61268C0.453856 1.78985 0.694141 1.88938 0.944688 1.88938V5.08878e-08ZM3.46386 0.944688L4.40602 0.871632C4.38762 0.634391 4.28037 0.412833 4.1057 0.251239C3.93103 0.0896461 3.70181 -7.80064e-05 3.46386 5.08878e-08V0.944688ZM23.6172 4.72344L24.5556 4.82798C24.5703 4.69596 24.557 4.56233 24.5165 4.4358C24.4761 4.30927 24.4094 4.19269 24.3209 4.09367C24.2323 3.99466 24.1239 3.91543 24.0026 3.86117C23.8814 3.8069 23.75 3.77882 23.6172 3.77875V4.72344ZM0.944688 1.88938H3.46386V5.08878e-08H0.944688V1.88938ZM7.28921 18.0826L20.3322 17.1517L20.1974 15.2674L7.1557 16.1995L7.28921 18.0826ZM23.5278 14.0784L24.5556 4.82798L22.6788 4.61889L21.651 13.8705L23.5278 14.0784ZM2.52169 1.01648L2.81265 4.79649L4.69699 4.65038L4.40602 0.871632L2.52169 1.01648ZM2.81265 4.79649L3.58981 14.8933L5.47289 14.7485L4.69699 4.65038L2.81265 4.79649ZM23.6172 3.77875H3.75356V5.66813H23.6172V3.77875ZM20.3322 17.1517C21.1402 17.0939 21.9023 16.7548 22.4861 16.1933C23.0699 15.6318 23.4385 14.8835 23.5278 14.0784L21.651 13.8705C21.6104 14.2366 21.4427 14.5769 21.1771 14.8321C20.9115 15.0873 20.5648 15.2414 20.1974 15.2674L20.3322 17.1517ZM7.1557 16.1982C6.74073 16.2281 6.3308 16.0925 6.01549 15.8211C5.70017 15.5497 5.5051 15.1645 5.47289 14.7497L3.58981 14.8933C3.66006 15.8058 4.08856 16.6534 4.78171 17.251C5.47486 17.8485 6.37634 18.1475 7.28921 18.0826L7.1557 16.1982Z"/>
</mask>
<path d="M0.944688 5.08878e-08C0.694141 5.08878e-08 0.453856 0.0995292 0.276693 0.276693C0.0995292 0.453856 0 0.694141 0 0.944688C0 1.19523 0.0995292 1.43552 0.276693 1.61268C0.453856 1.78985 0.694141 1.88938 0.944688 1.88938V5.08878e-08ZM3.46386 0.944688L4.40602 0.871632C4.38762 0.634391 4.28037 0.412833 4.1057 0.251239C3.93103 0.0896461 3.70181 -7.80064e-05 3.46386 5.08878e-08V0.944688ZM23.6172 4.72344L24.5556 4.82798C24.5703 4.69596 24.557 4.56233 24.5165 4.4358C24.4761 4.30927 24.4094 4.19269 24.3209 4.09367C24.2323 3.99466 24.1239 3.91543 24.0026 3.86117C23.8814 3.8069 23.75 3.77882 23.6172 3.77875V4.72344ZM0.944688 1.88938H3.46386V5.08878e-08H0.944688V1.88938ZM7.28921 18.0826L20.3322 17.1517L20.1974 15.2674L7.1557 16.1995L7.28921 18.0826ZM23.5278 14.0784L24.5556 4.82798L22.6788 4.61889L21.651 13.8705L23.5278 14.0784ZM2.52169 1.01648L2.81265 4.79649L4.69699 4.65038L4.40602 0.871632L2.52169 1.01648ZM2.81265 4.79649L3.58981 14.8933L5.47289 14.7485L4.69699 4.65038L2.81265 4.79649ZM23.6172 3.77875H3.75356V5.66813H23.6172V3.77875ZM20.3322 17.1517C21.1402 17.0939 21.9023 16.7548 22.4861 16.1933C23.0699 15.6318 23.4385 14.8835 23.5278 14.0784L21.651 13.8705C21.6104 14.2366 21.4427 14.5769 21.1771 14.8321C20.9115 15.0873 20.5648 15.2414 20.1974 15.2674L20.3322 17.1517ZM7.1557 16.1982C6.74073 16.2281 6.3308 16.0925 6.01549 15.8211C5.70017 15.5497 5.5051 15.1645 5.47289 14.7497L3.58981 14.8933C3.66006 15.8058 4.08856 16.6534 4.78171 17.251C5.47486 17.8485 6.37634 18.1475 7.28921 18.0826L7.1557 16.1982Z" fill="white"/>
<path d="M2.81265 4.79649L2.73524 3.7995L2.88996 5.7935L2.81265 4.79649ZM20.3322 17.1517L19.3347 17.2231L21.3297 17.0811L20.3322 17.1517ZM1.94469 1.88938V5.08878e-08H-0.0553122V1.88938H1.94469ZM3.67615 3.72644L2.73524 3.7995L2.89006 5.79349L3.83097 5.72044L3.67615 3.72644ZM19.2679 16.2803L19.3347 17.2224L21.3297 17.0811L21.2629 16.1389L19.2679 16.2803ZM8.21996 17.0711L8.1532 16.1277L6.15819 16.2688L6.22495 17.2123L8.21996 17.0711ZM21.3297 17.0804L21.1949 15.1961L19.2 15.3388L19.3347 17.2231L21.3297 17.0804ZM21.5409 14.8645L23.4177 15.0723L23.6378 13.0844L21.761 12.8766L21.5409 14.8645ZM2.88996 5.7935L4.7743 5.64739L4.61968 3.65338L2.73534 3.79949L2.88996 5.7935ZM0.944688 1.88938V3.88938V1.88938ZM3.46386 0.944688H1.46386V3.10577L3.61847 2.9387L3.46386 0.944688ZM4.40602 0.871632L6.40012 0.718086L6.40003 0.716965L4.40602 0.871632ZM23.6172 4.72344H21.6172V6.51299L23.3957 6.71114L23.6172 4.72344ZM23.6172 3.77875L23.6182 1.77875H23.6172V3.77875ZM2.81265 4.79649L4.80675 4.64301L4.80675 4.643L2.81265 4.79649ZM20.3322 17.1517L20.4746 19.1467L20.4749 19.1467L20.3322 17.1517ZM7.1557 16.1982L9.15069 16.0569L9.00918 14.0596L7.01209 14.2034L7.1557 16.1982ZM3.46386 1.88938V3.88938H5.46386V1.88938H3.46386ZM7.28921 18.0826L7.43111 20.0775L7.43158 20.0775L7.28921 18.0826ZM20.1974 15.2674L20.056 13.2724L20.0548 13.2725L20.1974 15.2674ZM7.1557 16.1995L7.01312 14.2046L5.01933 14.3471L5.1607 16.341L7.1557 16.1995ZM23.5278 14.0784L21.54 13.8575L21.5399 13.858L23.5278 14.0784ZM22.6788 4.61889L22.9003 2.63119L20.9119 2.40967L20.691 4.39806L22.6788 4.61889ZM21.651 13.8705L19.6632 13.6497L19.6632 13.6499L21.651 13.8705ZM2.52169 1.01648L2.3684 -0.977633L0.374075 -0.824326L0.527585 1.16998L2.52169 1.01648ZM4.69699 4.65038L6.69111 4.49716L6.69108 4.49684L4.69699 4.65038ZM3.58981 14.8933L1.59571 15.0468L1.59571 15.0468L3.58981 14.8933ZM5.47289 14.7485L5.62629 16.7426L7.62022 16.5892L7.46701 14.5952L5.47289 14.7485ZM3.75356 3.77875V1.77875H1.75356V3.77875H3.75356ZM3.75356 5.66813H1.75356V7.66813H3.75356V5.66813ZM23.6172 5.66813V7.66813H25.6172V5.66813H23.6172ZM6.01549 15.8211L4.71073 17.3369L6.01549 15.8211ZM5.47289 14.7497L7.46689 14.5949L7.31227 12.6037L5.32082 12.7555L5.47289 14.7497ZM0.944688 -2C0.163709 -2 -0.585284 -1.68976 -1.13752 -1.13752L1.69091 1.69091C1.493 1.88882 1.22457 2 0.944688 2V-2ZM-1.13752 -1.13752C-1.68976 -0.585284 -2 0.163709 -2 0.944688H2C2 1.22457 1.88882 1.493 1.69091 1.69091L-1.13752 -1.13752ZM-2 0.944688C-2 1.72567 -1.68976 2.47466 -1.13752 3.0269L1.69091 0.198469C1.88882 0.396379 2 0.664802 2 0.944688H-2ZM-1.13752 3.0269C-0.585284 3.57913 0.163709 3.88938 0.944688 3.88938V-0.110625C1.22457 -0.110625 1.493 0.000559182 1.69091 0.198469L-1.13752 3.0269ZM3.61847 2.9387L4.56064 2.86565L4.25141 -1.12238L3.30924 -1.04933L3.61847 2.9387ZM6.40003 0.716965C6.34267 -0.0225408 6.00835 -0.71316 5.46389 -1.21686L2.74751 1.71934C2.55238 1.53883 2.43257 1.29132 2.41201 1.0263L6.40003 0.716965ZM5.46389 -1.21686C4.91942 -1.72056 4.20493 -2.00024 3.4632 -2L3.46451 2C3.19869 2.00009 2.94263 1.89986 2.74751 1.71934L5.46389 -1.21686ZM1.46386 5.08878e-08V0.944688H5.46386V5.08878e-08H1.46386ZM23.3957 6.71114L24.3341 6.81569L24.777 2.84028L23.8386 2.73574L23.3957 6.71114ZM26.5433 5.04932C26.5891 4.63779 26.5476 4.22122 26.4216 3.82683L22.6115 5.04477C22.5663 4.90343 22.5514 4.75414 22.5679 4.60665L26.5433 5.04932ZM26.4216 3.82683C26.2955 3.43242 26.0877 3.06904 25.8116 2.7604L22.8301 5.42695C22.7312 5.31634 22.6567 5.18611 22.6115 5.04477L26.4216 3.82683ZM25.8116 2.7604C25.5356 2.45176 25.1976 2.20481 24.8196 2.03566L23.1856 5.68668C23.0502 5.62606 22.929 5.53756 22.8301 5.42695L25.8116 2.7604ZM24.8196 2.03566C24.4417 1.86651 24.0323 1.77897 23.6182 1.77875L23.6161 5.77875C23.4678 5.77867 23.321 5.7473 23.1856 5.68668L24.8196 2.03566ZM21.6172 3.77875V4.72344H25.6172V3.77875H21.6172ZM0.944688 3.88938H3.46386V-0.110625H0.944688V3.88938ZM5.46386 1.88938V5.08878e-08H1.46386V1.88938H5.46386ZM3.46386 -2H0.944688V2H3.46386V-2ZM7.43158 20.0775L20.4746 19.1467L20.1898 15.1568L7.14684 16.0877L7.43158 20.0775ZM20.0548 13.2725L7.01312 14.2046L7.29827 18.1944L20.34 17.2623L20.0548 13.2725ZM5.1607 16.341L5.29422 18.224L9.2842 17.9411L9.15069 16.0581L5.1607 16.341ZM25.5155 14.2992L26.5434 5.04885L22.5678 4.60712L21.54 13.8575L25.5155 14.2992ZM24.777 2.84028L22.9003 2.63119L22.4574 6.6066L24.3341 6.81569L24.777 2.84028ZM20.691 4.39806L19.6632 13.6497L23.6388 14.0914L24.6666 4.83973L20.691 4.39806ZM0.527585 1.16998L0.818549 4.94999L4.80675 4.643L4.51579 0.862989L0.527585 1.16998ZM6.69108 4.49684L6.40012 0.718086L2.41193 1.02518L2.70289 4.80393L6.69108 4.49684ZM4.25273 -1.12249L2.3684 -0.977633L2.67498 3.0106L4.55932 2.86575L4.25273 -1.12249ZM0.818549 4.94998L1.59571 15.0468L5.58392 14.7398L4.80675 4.64301L0.818549 4.94998ZM3.74321 16.8874L5.62629 16.7426L5.3195 12.7544L3.43642 12.8992L3.74321 16.8874ZM7.46701 14.5952L6.69111 4.49716L2.70287 4.8036L3.47877 14.9017L7.46701 14.5952ZM23.6172 1.77875H3.75356V5.77875H23.6172V1.77875ZM1.75356 3.77875V5.66813H5.75356V3.77875H1.75356ZM3.75356 7.66813H23.6172V3.66813H3.75356V7.66813ZM25.6172 5.66813V3.77875H21.6172V5.66813H25.6172ZM20.4749 19.1467C21.7494 19.0555 22.9516 18.5205 23.8725 17.6348L21.0997 14.7518C20.853 14.9891 20.5309 15.1324 20.1895 15.1568L20.4749 19.1467ZM23.8725 17.6348C24.7934 16.7491 25.3748 15.5687 25.5156 14.2987L21.5399 13.858C21.5022 14.1982 21.3465 14.5145 21.0997 14.7518L23.8725 17.6348ZM19.6632 13.6499C19.6742 13.551 19.7195 13.459 19.7913 13.3901L22.5629 16.2742C23.1658 15.6947 23.5465 14.9222 23.6388 14.0911L19.6632 13.6499ZM19.7913 13.3901C19.863 13.3211 19.9567 13.2795 20.056 13.2724L20.3388 17.2624C21.173 17.2033 21.96 16.8536 22.5629 16.2742L19.7913 13.3901ZM7.01209 14.2034C7.12424 14.1953 7.23503 14.232 7.32025 14.3053L4.71073 17.3369C5.42658 17.9531 6.35722 18.2609 7.2993 18.1931L7.01209 14.2034ZM7.32025 14.3053C7.40546 14.3787 7.45818 14.4828 7.46689 14.5949L3.47889 14.9046C3.55202 15.8462 3.99488 16.7207 4.71073 17.3369L7.32025 14.3053ZM5.32082 12.7555L3.43775 12.8991L3.74188 16.8875L5.62496 16.7439L5.32082 12.7555ZM1.59571 15.0468C1.70651 16.4862 2.38242 17.8232 3.4758 18.7658L6.08762 15.7362C5.79469 15.4836 5.6136 15.1254 5.58391 14.7398L1.59571 15.0468ZM3.4758 18.7658C4.56917 19.7084 5.99115 20.18 7.43111 20.0775L7.14731 16.0876C6.76152 16.1151 6.38055 15.9887 6.08762 15.7362L3.4758 18.7658ZM9.28421 17.9412L9.15069 16.0569L5.1607 16.3396L5.29421 18.2239L9.28421 17.9412Z" fill="white" mask="url(#path-1-inside-1_2601_13)"/>
<path d="M7.87354 22.9873H7.88613V22.9999H7.87354V22.9873ZM19.2098 22.9873H19.2224V22.9999H19.2098V22.9873Z" fill="white" stroke="white" stroke-width="2" stroke-linejoin="round"/>
</svg>
