<svg width="20" height="20" viewBox="0 0 20 20" fill="none" xmlns="http://www.w3.org/2000/svg">
<g id="lsicon:picking-path-outline">
<path id="Vector" d="M5 6.875V14.375C5 15.038 5.26339 15.6739 5.73223 16.1428C6.20107 16.6116 6.83696 16.875 7.5 16.875C8.16304 16.875 8.79893 16.6116 9.26777 16.1428C9.73661 15.6739 10 15.038 10 14.375V5.625C10 4.96196 10.2634 4.32607 10.7322 3.85723C11.2011 3.38839 11.837 3.125 12.5 3.125C13.163 3.125 13.7989 3.38839 14.2678 3.85723C14.7366 4.32607 15 4.96196 15 5.625V9.375M5 6.875C5.49728 6.875 5.97419 6.67746 6.32583 6.32583C6.67746 5.97419 6.875 5.49728 6.875 5C6.875 4.50272 6.67746 4.02581 6.32583 3.67417C5.97419 3.32254 5.49728 3.125 5 3.125C4.50272 3.125 4.02581 3.32254 3.67417 3.67417C3.32254 4.02581 3.125 4.50272 3.125 5C3.125 5.49728 3.32254 5.97419 3.67417 6.32583C4.02581 6.67746 4.50272 6.875 5 6.875ZM15 16.5L15.185 16.37C15.7067 16.0047 16.1328 15.5191 16.4269 14.9542C16.7211 14.3894 16.8748 13.7619 16.875 13.125C16.875 12.6277 16.6775 12.1508 16.3258 11.7992C15.9742 11.4475 15.4973 11.25 15 11.25C14.5027 11.25 14.0258 11.4475 13.6742 11.7992C13.3225 12.1508 13.125 12.6277 13.125 13.125C13.1252 13.7619 13.2789 14.3894 13.5731 14.9542C13.8672 15.5191 14.2933 16.0047 14.815 16.37L15 16.5Z" stroke="black"/>
</g>
</svg>
