<svg width="22" height="27" viewBox="0 0 22 27" fill="none" xmlns="http://www.w3.org/2000/svg">
<path d="M20.7156 16.8754C21.5623 15.2162 22.0035 13.3644 22 11.4844C22 5.14165 17.0752 0 11 0C4.92477 0 1.69605e-05 5.14165 1.69605e-05 11.4844C-0.00454848 14.1936 0.912719 16.8164 2.58825 18.8851L2.60119 18.902L2.61284 18.9155H2.58825L9.11577 26.1507C9.35774 26.4189 9.64969 26.6326 9.97366 26.7786C10.2976 26.9247 10.6468 27 10.9997 27C11.3526 27 11.7017 26.9247 12.0257 26.7786C12.3497 26.6326 12.6416 26.4189 12.8836 26.1507L19.4117 18.9155H19.3872L19.3975 18.9027L19.3988 18.9013C19.4454 18.8432 19.4918 18.7847 19.5379 18.7257C19.9869 18.1499 20.3813 17.5307 20.7156 16.8754ZM11.0032 15.8749C9.97357 15.8749 8.98608 15.4478 8.258 14.6877C7.52992 13.9275 7.12089 12.8965 7.12089 11.8215C7.12089 10.7465 7.52992 9.71554 8.258 8.95539C8.98608 8.19525 9.97357 7.7682 11.0032 7.7682C12.0329 7.7682 13.0204 8.19525 13.7485 8.95539C14.4765 9.71554 14.8856 10.7465 14.8856 11.8215C14.8856 12.8965 14.4765 13.9275 13.7485 14.6877C13.0204 15.4478 12.0329 15.8749 11.0032 15.8749Z" fill="white"/>
</svg>
