<svg width="24" height="27" viewBox="0 0 24 27" fill="none" xmlns="http://www.w3.org/2000/svg">
<path d="M21.9364 16.8754C22.8024 15.2162 23.2536 13.3644 23.25 11.4844C23.25 5.14165 18.2133 0 12 0C5.7867 0 0.750017 5.14165 0.750017 11.4844C0.745348 14.1936 1.68346 16.8164 3.39707 18.8851L3.41031 18.902L3.42222 18.9155H3.39707L10.0729 26.1507C10.3204 26.4189 10.619 26.6326 10.9503 26.7786C11.2817 26.9247 11.6388 27 11.9997 27C12.3606 27 12.7177 26.9247 13.049 26.7786C13.3803 26.6326 13.6789 26.4189 13.9264 26.1507L20.6029 18.9155H20.5778L20.5884 18.9027L20.5897 18.9013C20.6373 18.8432 20.6848 18.7847 20.732 18.7257C21.1911 18.1499 21.5945 17.5307 21.9364 16.8754ZM12.0033 15.8749C10.9502 15.8749 9.94031 15.4478 9.19568 14.6877C8.45105 13.9275 8.03272 12.8965 8.03272 11.8215C8.03272 10.7465 8.45105 9.71554 9.19568 8.95539C9.94031 8.19525 10.9502 7.7682 12.0033 7.7682C13.0564 7.7682 14.0663 8.19525 14.8109 8.95539C15.5556 9.71554 15.9739 10.7465 15.9739 11.8215C15.9739 12.8965 15.5556 13.9275 14.8109 14.6877C14.0663 15.4478 13.0564 15.8749 12.0033 15.8749Z" fill="#52CCD7"/>
</svg>
