<svg width="52" height="52" viewBox="0 0 52 52" fill="none" xmlns="http://www.w3.org/2000/svg">
<rect x="1.5" y="1.5" width="49" height="49" rx="24.5" fill="white"/>
<rect x="1.5" y="1.5" width="49" height="49" rx="24.5" stroke="#52CCD7" stroke-width="3"/>
<path d="M35.9364 29.3754C36.8024 27.7162 37.2536 25.8644 37.25 23.9844C37.25 17.6416 32.2133 12.5 26 12.5C19.7867 12.5 14.75 17.6416 14.75 23.9844C14.7453 26.6936 15.6835 29.3164 17.3971 31.3851L17.4103 31.402L17.4222 31.4155H17.3971L24.0729 38.6507C24.3204 38.9189 24.619 39.1326 24.9503 39.2786C25.2817 39.4247 25.6388 39.5 25.9997 39.5C26.3606 39.5 26.7177 39.4247 27.049 39.2786C27.3803 39.1326 27.6789 38.9189 27.9264 38.6507L34.6029 31.4155H34.5778L34.5884 31.4027L34.5897 31.4013C34.6373 31.3432 34.6848 31.2847 34.732 31.2257C35.1911 30.6499 35.5945 30.0307 35.9364 29.3754ZM26.0033 28.3749C24.9502 28.3749 23.9403 27.9478 23.1957 27.1877C22.4511 26.4275 22.0327 25.3965 22.0327 24.3215C22.0327 23.2465 22.4511 22.2155 23.1957 21.4554C23.9403 20.6952 24.9502 20.2682 26.0033 20.2682C27.0564 20.2682 28.0663 20.6952 28.8109 21.4554C29.5556 22.2155 29.9739 23.2465 29.9739 24.3215C29.9739 25.3965 29.5556 26.4275 28.8109 27.1877C28.0663 27.9478 27.0564 28.3749 26.0033 28.3749Z" fill="#52CCD7"/>
</svg>
