<svg width="24" height="28" viewBox="0 0 24 28" fill="none" xmlns="http://www.w3.org/2000/svg">
<path d="M21.9364 17.3754C22.8024 15.7162 23.2536 13.8644 23.25 11.9844C23.25 5.64165 18.2133 0.5 12 0.5C5.7867 0.5 0.750017 5.64165 0.750017 11.9844C0.745348 14.6936 1.68346 17.3164 3.39707 19.3851L3.41031 19.402L3.42222 19.4155H3.39707L10.0729 26.6507C10.3204 26.9189 10.619 27.1326 10.9503 27.2786C11.2817 27.4247 11.6388 27.5 11.9997 27.5C12.3606 27.5 12.7177 27.4247 13.049 27.2786C13.3803 27.1326 13.6789 26.9189 13.9264 26.6507L20.6029 19.4155H20.5778L20.5884 19.4027L20.5897 19.4013C20.6373 19.3432 20.6848 19.2847 20.732 19.2257C21.1911 18.6499 21.5945 18.0307 21.9364 17.3754ZM12.0033 16.3749C10.9502 16.3749 9.94031 15.9478 9.19568 15.1877C8.45105 14.4275 8.03272 13.3965 8.03272 12.3215C8.03272 11.2465 8.45105 10.2155 9.19568 9.45539C9.94031 8.69525 10.9502 8.2682 12.0033 8.2682C13.0564 8.2682 14.0663 8.69525 14.8109 9.45539C15.5556 10.2155 15.9739 11.2465 15.9739 12.3215C15.9739 13.3965 15.5556 14.4275 14.8109 15.1877C14.0663 15.9478 13.0564 16.3749 12.0033 16.3749Z" fill="#52CCD7"/>
</svg>
